<svg xmlns="http://www.w3.org/2000/svg" viewBox="0 0 1600 1000" fill="none">
  <defs>
    <linearGradient id="bg" x1="100" y1="80" x2="1500" y2="930" gradientUnits="userSpaceOnUse">
      <stop stop-color="#090A10"/>
      <stop offset="1" stop-color="#1A1F2A"/>
    </linearGradient>
  </defs>
  <rect width="1600" height="1000" rx="44" fill="url(#bg)"/>
  <rect x="72" y="72" width="1456" height="856" rx="40" fill="#0A0D14" stroke="#E1B768" stroke-opacity=".16" stroke-width="2"/>
  <rect x="112" y="112" width="1376" height="56" rx="20" fill="#101520"/>
  <circle cx="150" cy="140" r="8" fill="#FF8F78"/>
  <circle cx="178" cy="140" r="8" fill="#F0CE70"/>
  <circle cx="206" cy="140" r="8" fill="#76D6A0"/>
  <text x="244" y="149" fill="#F9EDDA" font-family="Arial, sans-serif" font-size="30" font-weight="700">NeuroDash Analytics</text>
  <rect x="112" y="204" width="360" height="644" rx="30" fill="#101722"/>
  <rect x="152" y="246" width="280" height="132" rx="24" fill="#181F2D"/>
  <rect x="152" y="404" width="280" height="164" rx="24" fill="#181F2D"/>
  <rect x="152" y="594" width="280" height="214" rx="24" fill="#181F2D"/>
  <rect x="504" y="204" width="984" height="644" rx="30" fill="#0F141E"/>
  <rect x="544" y="244" width="904" height="266" rx="28" fill="#141B28"/>
  <rect x="544" y="542" width="430" height="266" rx="28" fill="#141B28"/>
  <rect x="1002" y="542" width="446" height="266" rx="28" fill="#141B28"/>
  <circle cx="926" cy="378" r="128" fill="#B5843B" fill-opacity=".14"/>
  <circle cx="926" cy="378" r="84" fill="#B5843B" fill-opacity=".22"/>
  <circle cx="926" cy="378" r="42" fill="#E1B768"/>
  <path d="M1070 622H1384" stroke="#E1B768" stroke-width="18" stroke-linecap="round"/>
  <path d="M1070 672H1338" stroke="#2D384C" stroke-width="18" stroke-linecap="round"/>
  <path d="M1070 722H1282" stroke="#2D384C" stroke-width="18" stroke-linecap="round"/>
</svg>
