<svg xmlns="http://www.w3.org/2000/svg" viewBox="0 0 1600 1000" fill="none">
  <defs>
    <linearGradient id="bg" x1="120" y1="90" x2="1490" y2="910" gradientUnits="userSpaceOnUse">
      <stop stop-color="#F6ECF1"/>
      <stop offset="1" stop-color="#D5BEC8"/>
    </linearGradient>
    <linearGradient id="hero" x1="444" y1="230" x2="1360" y2="810" gradientUnits="userSpaceOnUse">
      <stop stop-color="#874061"/>
      <stop offset="1" stop-color="#E1B7C8"/>
    </linearGradient>
  </defs>
  <rect width="1600" height="1000" rx="44" fill="url(#bg)"/>
  <rect x="74" y="74" width="1452" height="852" rx="40" fill="#FAF2F6" stroke="#9A5E79" stroke-opacity=".18" stroke-width="2"/>
  <rect x="116" y="116" width="1368" height="56" rx="20" fill="#F0E1E8"/>
  <circle cx="154" cy="144" r="8" fill="#E4A1A1"/>
  <circle cx="182" cy="144" r="8" fill="#EBD17A"/>
  <circle cx="210" cy="144" r="8" fill="#9DD8B0"/>
  <text x="250" y="152" fill="#26161F" font-family="Arial, sans-serif" font-size="30" font-weight="700">StackForge Studio</text>
  <rect x="116" y="208" width="412" height="640" rx="32" fill="#FFF8FB"/>
  <rect x="156" y="252" width="334" height="122" rx="26" fill="url(#hero)"/>
  <text x="190" y="310" fill="#FFF6FB" font-family="Arial, sans-serif" font-size="38" font-weight="700">Ship bold digital products</text>
  <rect x="156" y="410" width="334" height="170" rx="26" fill="#F5E7EE"/>
  <rect x="156" y="610" width="158" height="196" rx="24" fill="#F5E7EE"/>
  <rect x="332" y="610" width="158" height="196" rx="24" fill="#F5E7EE"/>
  <rect x="566" y="208" width="918" height="640" rx="32" fill="#FFF8FB"/>
  <rect x="608" y="250" width="256" height="244" rx="28" fill="#F6EAF0"/>
  <rect x="890" y="250" width="256" height="244" rx="28" fill="#F6EAF0"/>
  <rect x="1172" y="250" width="270" height="244" rx="28" fill="#F6EAF0"/>
  <rect x="608" y="526" width="834" height="280" rx="28" fill="#F6EAF0"/>
  <path d="M650 696H1396" stroke="#D7BAC5" stroke-width="18" stroke-linecap="round"/>
  <path d="M650 742H1318" stroke="#E3CCD5" stroke-width="18" stroke-linecap="round"/>
  <path d="M650 788H1204" stroke="#E3CCD5" stroke-width="18" stroke-linecap="round"/>
</svg>
