<svg xmlns="http://www.w3.org/2000/svg" viewBox="0 0 1600 1000" fill="none">
  <defs>
    <linearGradient id="bg" x1="140" y1="80" x2="1480" y2="920" gradientUnits="userSpaceOnUse">
      <stop stop-color="#F7F5F0"/>
      <stop offset="1" stop-color="#DDD5C8"/>
    </linearGradient>
    <linearGradient id="hero" x1="360" y1="220" x2="1260" y2="780" gradientUnits="userSpaceOnUse">
      <stop stop-color="#202A3F"/>
      <stop offset="1" stop-color="#68779A"/>
    </linearGradient>
  </defs>
  <rect width="1600" height="1000" rx="44" fill="url(#bg)"/>
  <rect x="72" y="72" width="1456" height="856" rx="40" fill="#FBF9F5" stroke="#93846B" stroke-opacity=".18" stroke-width="2"/>
  <rect x="112" y="112" width="1376" height="56" rx="20" fill="#F0ECE4"/>
  <circle cx="150" cy="140" r="8" fill="#E69A83"/>
  <circle cx="178" cy="140" r="8" fill="#EACB6E"/>
  <circle cx="206" cy="140" r="8" fill="#8FC7A1"/>
  <text x="244" y="149" fill="#22201B" font-family="Arial, sans-serif" font-size="30" font-weight="700">TaskFlow ERP</text>
  <rect x="112" y="204" width="1376" height="194" rx="32" fill="url(#hero)"/>
  <text x="160" y="290" fill="#F7F9FC" font-family="Arial, sans-serif" font-size="50" font-weight="700">Plan teams, approvals and reporting in one system</text>
  <rect x="160" y="328" width="186" height="46" rx="16" fill="#F7F9FC"/>
  <text x="202" y="358" fill="#1E273B" font-family="Arial, sans-serif" font-size="22" font-weight="700">Open workflow</text>
  <rect x="112" y="432" width="290" height="416" rx="30" fill="#FFFFFF"/>
  <rect x="430" y="432" width="520" height="416" rx="30" fill="#FFFFFF"/>
  <rect x="978" y="432" width="510" height="416" rx="30" fill="#FFFFFF"/>
  <rect x="150" y="474" width="214" height="96" rx="22" fill="#F2EFE9"/>
  <rect x="150" y="592" width="214" height="96" rx="22" fill="#F2EFE9"/>
  <rect x="150" y="710" width="214" height="96" rx="22" fill="#F2EFE9"/>
  <rect x="470" y="474" width="440" height="58" rx="18" fill="#F2EFE9"/>
  <rect x="470" y="554" width="440" height="58" rx="18" fill="#F2EFE9"/>
  <rect x="470" y="634" width="440" height="58" rx="18" fill="#F2EFE9"/>
  <rect x="470" y="714" width="440" height="92" rx="22" fill="#F2EFE9"/>
  <rect x="1018" y="474" width="430" height="332" rx="24" fill="#F2EFE9"/>
</svg>
